HIERARCHY
ROOT hip
{
  OFFSET 0 0 0
  CHANNELS 6 Xposition Yposition Zposition Zrotation Yrotation Xrotation
  JOINT abdomen
  {
    OFFSET 0 20.6881 -0.73152
    CHANNELS 3 Zrotation Xrotation Yrotation
    JOINT chest
    {
      OFFSET 0 11.7043 -0.48768
      CHANNELS 3 Zrotation Xrotation Yrotation
      JOINT neck
      {
        OFFSET 0 22.1894 -2.19456
        CHANNELS 3 Zrotation Xrotation Yrotation
        JOINT head
        {
          OFFSET -0.24384 7.07133 1.2192
          CHANNELS 3 Zrotation Xrotation Yrotation
          JOINT leftEye
          {
            OFFSET 4.14528 8.04674 8.04672
            CHANNELS 3 Zrotation Xrotation Yrotation
            End Site
            {
              OFFSET 1 0 0
            }
          }
          JOINT rightEye
          {
            OFFSET -3.6576 8.04674 8.04672
            CHANNELS 3 Zrotation Xrotation Yrotation
            End Site
            {
              OFFSET 1 0 0
            }
          }
        }
      }
      JOINT rCollar
      {
        OFFSET -2.68224 19.2634 -4.8768
        CHANNELS 3 Zrotation Xrotation Yrotation
        JOINT rShldr
        {
          OFFSET -8.77824 -1.95073 1.46304
          CHANNELS 3 Zrotation Xrotation Yrotation
          JOINT rForeArm
          {
            OFFSET -28.1742 -1.7115 0.48768
            CHANNELS 3 Zrotation Xrotation Yrotation
            JOINT rHand
            {
              OFFSET -22.5879 0.773209 7.07136
              CHANNELS 3 Zrotation Xrotation Yrotation
              JOINT rThumb1
              {
                OFFSET -1.2192 -0.487915 3.41376
                CHANNELS 3 Zrotation Xrotation Yrotation
                JOINT rThumb2
                {
                  OFFSET -3.37035 -0.52449 3.41376
                  CHANNELS 3 Zrotation Xrotation Yrotation
                  End Site
                  {
                    OFFSET -1.78271 -1.18214 1.43049
                  }
                }
              }
              JOINT rIndex1
              {
                OFFSET -7.75947 0.938293 5.60832
                CHANNELS 3 Zrotation Xrotation Yrotation
                JOINT rIndex2
                {
                  OFFSET -2.54057 -0.884171 1.56538
                  CHANNELS 3 Zrotation Xrotation Yrotation
                  End Site
                  {
                    OFFSET -1.62519 -0.234802 1.16502
                  }
                }
              }
              JOINT rMid1
              {
                OFFSET -8.24714 1.18213 3.41376
                CHANNELS 3 Zrotation Xrotation Yrotation
                JOINT rMid2
                {
                  OFFSET -3.10165 -0.590103 1.0647
                  CHANNELS 3 Zrotation Xrotation Yrotation
                  End Site
                  {
                    OFFSET -2.48547 -0.328903 0.83742
                  }
                }
              }
              JOINT rRing1
              {
                OFFSET -8.82822 0.546677 1.51678
                CHANNELS 3 Zrotation Xrotation Yrotation
                JOINT rRing2
                {
                  OFFSET -2.60934 -0.819778 -0.0198488
                  CHANNELS 3 Zrotation Xrotation Yrotation
                  End Site
                  {
                    OFFSET -2.33842 -0.294052 0.168128
                  }
                }
              }
              JOINT rPinky1
              {
                OFFSET -8.27202 -0.0477905 -0.4584
                CHANNELS 3 Zrotation Xrotation Yrotation
                JOINT rPinky2
                {
                  OFFSET -1.82734 -0.647385 -0.700984
                  CHANNELS 3 Zrotation Xrotation Yrotation
                  End Site
                  {
                    OFFSET -1.69225 -0.51767 -0.607171
                  }
                }
              }
            }
          }
        }
      }
      JOINT lCollar
      {
        OFFSET 2.68224 19.2634 -4.8768
        CHANNELS 3 Zrotation Xrotation Yrotation
        JOINT lShldr
        {
          OFFSET 8.77824 -1.95073 1.46304
          CHANNELS 3 Zrotation Xrotation Yrotation
          JOINT lForeArm
          {
            OFFSET 28.1742 -1.7115 0.48768
            CHANNELS 3 Zrotation Xrotation Yrotation
            JOINT lHand
            {
              OFFSET 22.5879 0.773209 7.07136
              CHANNELS 3 Zrotation Xrotation Yrotation
              JOINT lThumb1
              {
                OFFSET 1.2192 -0.487915 3.41376
                CHANNELS 3 Zrotation Xrotation Yrotation
                JOINT lThumb2
                {
                  OFFSET 3.37035 -0.52449 3.41376
                  CHANNELS 3 Zrotation Xrotation Yrotation
                  End Site
                  {
                    OFFSET 1.78271 -1.18214 1.43049
                  }
                }
              }
              JOINT lIndex1
              {
                OFFSET 7.75947 0.938293 5.60832
                CHANNELS 3 Zrotation Xrotation Yrotation
                JOINT lIndex2
                {
                  OFFSET 2.54057 -0.884171 1.56538
                  CHANNELS 3 Zrotation Xrotation Yrotation
                  End Site
                  {
                    OFFSET 1.62519 -0.234802 1.16502
                  }
                }
              }
              JOINT lMid1
              {
                OFFSET 8.24714 1.18213 3.41376
                CHANNELS 3 Zrotation Xrotation Yrotation
                JOINT lMid2
                {
                  OFFSET 3.10165 -0.590103 1.0647
                  CHANNELS 3 Zrotation Xrotation Yrotation
                  End Site
                  {
                    OFFSET 2.48547 -0.328903 0.83742
                  }
                }
              }
              JOINT lRing1
              {
                OFFSET 8.82822 0.546677 1.51678
                CHANNELS 3 Zrotation Xrotation Yrotation
                JOINT lRing2
                {
                  OFFSET 2.60934 -0.819778 -0.0198488
                  CHANNELS 3 Zrotation Xrotation Yrotation
                  End Site
                  {
                    OFFSET 2.33842 -0.294052 0.168128
                  }
                }
              }
              JOINT lPinky1
              {
                OFFSET 8.27202 -0.0477905 -0.4584
                CHANNELS 3 Zrotation Xrotation Yrotation
                JOINT lPinky2
                {
                  OFFSET 1.82734 -0.647385 -0.700984
                  CHANNELS 3 Zrotation Xrotation Yrotation
                  End Site
                  {
                    OFFSET 1.69225 -0.51767 -0.607171
                  }
                }
              }
            }
          }
        }
      }
    }
  }
  JOINT rButtock
  {
    OFFSET -8.77824 4.35084 1.2192
    CHANNELS 3 Zrotation Xrotation Yrotation
    JOINT rThigh
    {
      OFFSET 0 -1.70687 -2.19456
      CHANNELS 3 Zrotation Xrotation Yrotation
      JOINT rShin
      {
        OFFSET 0 -36.8199 0.73152
        CHANNELS 3 Zrotation Xrotation Yrotation
        JOINT rFoot
        {
          OFFSET 0.73152 -45.1104 -5.12064
          CHANNELS 3 Zrotation Xrotation Yrotation
          End Site
          {
            OFFSET -1.1221 -3.69964 12.103
          }
        }
      }
    }
  }
  JOINT lButtock
  {
    OFFSET 8.77824 4.35084 1.2192
    CHANNELS 3 Zrotation Xrotation Yrotation
    JOINT lThigh
    {
      OFFSET 0 -1.70687 -2.19456
      CHANNELS 3 Zrotation Xrotation Yrotation
      JOINT lShin
      {
        OFFSET 0 -36.8199 0.73152
        CHANNELS 3 Zrotation Xrotation Yrotation
        JOINT lFoot
        {
          OFFSET -0.73152 -45.1104 -5.12064
          CHANNELS 3 Zrotation Xrotation Yrotation
          End Site
          {
            OFFSET 1.1221 -3.69964 12.103
          }
        }
      }
    }
  }
}
MOTION
Frames:	4
Frame Time:	0.00833333
-76.4314 85.1887 12.5631 0.0 0.0 0.0 0.559351 -0.00286671 0.0159889 0.154366 -0.00442833 0.0267461 -2.88768e-15 7.95139e-16 8.69683e-17 -8.66266e-15 9.54166e-15 2.50034e-16 -0.0 0.0 0.0 -0.0 0.0 0.0 -1.34319e-15 -3.68839e-18 1.98785e-16 -2.86684e-14 3.60297e-16 1.59028e-15 -5.16144e-13 1.52269e-13 6.36111e-15 -5.89542e-12 -1.60842e-13 1.81292e-13 -1.39095e-11 -2.5196e-14 4.32555e-13 -2.40247e-11 -5.08889e-14 7.4425e-13 -1.39022e-11 -2.50469e-14 4.16653e-13 7.73091 5.47488 0.417314 -1.39105e-11 -2.57426e-14 4.32555e-13 2.90554 0.965183 0.102902 -1.39013e-11 -2.51463e-14 4.3017e-13 10.2786 0.731801 0.0259123 -1.39161e-11 -2.3059e-14 4.35736e-13 2.22167 -0.733487 -0.20892 -1.53929e-15 -3.49426e-18 -9.93923e-17 -3.1389e-14 -3.10601e-17 0.0 -5.14306e-13 -1.56841e-13 9.54166e-15 -5.90191e-12 1.35521e-13 1.97194e-13 -1.39136e-11 -5.01996e-14 4.29375e-13 -2.40168e-11 -8.26944e-14 7.46635e-13 -1.39193e-11 -5.20816e-14 4.42097e-13 -7.73091 5.47488 -0.417314 -1.39124e-11 -5.04913e-14 4.32555e-13 -2.90554 0.965183 -0.102902 -1.39212e-11 -5.03919e-14 4.32555e-13 -10.2786 0.731801 -0.0259123 -1.39042e-11 -4.69132e-14 4.32555e-13 -2.22167 -0.733487 0.20892 -2.03217e-16 0.0 -3.88251e-19 0.92299 -4.50513 -0.0770315 -0.00206828 2.60853 -0.00962948 -0.502458 1.89677 0.0959415 2.03217e-16 0.0 3.88251e-19 -0.0712495 -2.35216 0.0224558 0.00807198 -1.29119 0.0691988 0.49462 3.64342 -0.130518
-74.0089 84.1215 8.15934 171.325 85.5736 -179.182 1.15908 -1.58982 0.691161 -0.323497 1.3095 0.230087 0.0843409 3.40367 -0.511729 0.143988 -6.01628 -0.979131 -0.0 0.0 0.0 -0.0 0.0 0.0 -1.41862e-14 -3.86537e-14 -1.14165e-14 18.1972 26.2321 -7.36296 -18.3732 -15.9736 15.1102 0.141441 8.38501 1.13391 -1.3834e-10 1.06526e-10 3.39357e-10 -2.31096e-10 1.64052e-10 5.89841e-10 -1.38335e-10 1.06527e-10 3.39342e-10 7.73091 5.47488 0.417314 -1.38342e-10 1.06527e-10 3.39355e-10 2.90554 0.965183 0.102902 -1.38335e-10 1.06527e-10 3.39355e-10 10.2786 0.731801 0.0259123 -1.38347e-10 1.06529e-10 3.39361e-10 2.22167 -0.733487 -0.20892 -1.43458e-14 -3.86533e-14 -1.17306e-14 -15.2513 29.3733 3.62941 18.8123 -16.4557 -15.1371 -0.00504369 -1.57639 0.221245 -5.51251e-10 -3.30738e-10 -1.28298e-10 -9.50791e-10 -5.69228e-10 -2.25643e-10 -5.51258e-10 -3.3074e-10 -1.28285e-10 -7.73091 5.47488 -0.417314 -5.51251e-10 -3.3074e-10 -1.28296e-10 -2.90554 0.965183 -0.102902 -5.51259e-10 -3.3074e-10 -1.28295e-10 -10.2786 0.731801 -0.0259123 -5.51243e-10 -3.30737e-10 -1.28297e-10 -2.22167 -0.733487 0.20892 -2.03217e-16 0.0 -3.88251e-19 0.12199 -6.80342 1.02247 0.00278375 4.70034 0.0516123 -0.8699 -1.74242 -5.69554 2.03217e-16 0.0 3.88251e-19 1.6985 -5.69491 -1.82221 0.000718601 2.35711 -0.0178949 0.654016 -1.32511 1.96644
-74.1159 84.1871 7.71678 171.515 85.6564 -179.021 1.83839 -3.27226 1.41537 -0.840804 2.69707 0.44798 0.236757 7.03807 -1.06249 0.0979426 -12.3899 -2.05174 -0.0 0.0 0.0 -0.0 0.0 0.0 -2.86056e-14 -8.23364e-14 -2.2559e-14 48.8527 52.1627 -22.5307 -28.0112 -29.0181 34.7017 -0.0851317 17.1592 2.40564 -2.73826e-10 2.08727e-10 7.30893e-10 -4.5601e-10 3.17684e-10 1.27012e-09 -2.73824e-10 2.08729e-10 7.3088e-10 7.73091 5.47488 0.417314 -2.73829e-10 2.0873e-10 7.30889e-10 2.90554 0.965183 0.102902 -2.73823e-10 2.0873e-10 7.30892e-10 10.2786 0.731801 0.0259123 -2.73833e-10 2.08731e-10 7.30899e-10 2.22167 -0.733487 -0.20892 -2.8727e-14 -8.23356e-14 -2.28913e-14 -39.0458 59.9007 13.0562 28.5063 -29.8345 -34.996 0.00287421 -3.23644 0.454799 -1.15607e-09 -6.8272e-10 -2.8557e-10 -1.99386e-09 -1.17472e-09 -5.01916e-10 -1.15608e-09 -6.82722e-10 -2.85557e-10 -7.73091 5.47488 -0.417314 -1.15607e-09 -6.82723e-10 -2.85569e-10 -2.90554 0.965183 -0.102902 -1.15608e-09 -6.82723e-10 -2.85568e-10 -10.2786 0.731801 -0.0259123 -1.15607e-09 -6.8272e-10 -2.85572e-10 -2.22167 -0.733487 0.20892 -2.03217e-16 0.0 -3.88251e-19 -0.60681 -9.21283 2.19398 0.0029518 6.89274 0.116337 -2.05161 -5.47859 -11.8667 2.03217e-16 0.0 3.88251e-19 3.35027 -9.21936 -3.84382 0.00505698 6.22801 -0.111166 1.22445 -6.59203 4.22267
-74.2322 84.2568 7.26657 172.03 85.7712 -178.461 2.47104 -4.76104 2.04778 -1.30726 3.93714 0.638095 0.437893 10.2077 -1.55713 -0.211696 -18.0272 -3.07216 -0.0 0.0 0.0 -0.0 0.0 0.0 -3.98721e-14 -1.15954e-13 -3.46472e-14 105.547 67.576 -62.6416 -28.9354 -33.4751 55.676 -0.658989 25.1135 3.71717 -3.87202e-10 3.19628e-10 1.0172e-09 -6.45239e-10 4.92257e-10 1.76804e-09 -3.87202e-10 3.1963e-10 1.01719e-09 7.73091 5.47488 0.417314 -3.87206e-10 3.19632e-10 1.0172e-09 2.90554 0.965183 0.102902 -3.87201e-10 3.19632e-10 1.0172e-09 10.2786 0.731801 0.0259123 -3.87209e-10 3.19633e-10 1.01721e-09 2.22167 -0.733487 -0.20892 -3.99589e-14 -1.15953e-13 -3.49931e-14 -120.009 80.3576 79.7451 29.1709 -34.3298 -56.4811 0.0214971 -4.72888 0.665749 -1.62593e-09 -9.92114e-10 -3.85752e-10 -2.80434e-09 -1.70752e-09 -6.78423e-10 -1.62593e-09 -9.92117e-10 -3.85739e-10 -7.73091 5.47488 -0.417314 -1.62593e-09 -9.92118e-10 -3.85752e-10 -2.90554 0.965183 -0.102902 -1.62594e-09 -9.92118e-10 -3.85751e-10 -10.2786 0.731801 -0.0259123 -1.62592e-09 -9.92116e-10 -3.85756e-10 -2.22167 -0.733487 0.20892 -2.03217e-16 0.0 -3.88251e-19 -1.21059 -11.3852 3.26368 -0.00107588 8.88392 0.175663 -3.79622 -8.63563 -17.4748 2.03217e-16 0.0 3.88251e-19 4.57975 -12.3314 -5.61444 0.0195823 9.65367 -0.19476 2.07695 -11.1987 6.27826
